                                  
Complete name                            : TRUTH IN 24 II -
                                           Every Second Counts (2012)

Format                                   : WebM
Format version                           : Version 2
File size                                : 1.63 GiB
Duration                                 : 1h 22mn
Overall bit rate mode                    : Variable
Overall bit rate                         : 2 817 Kbps
Writing application                      : google
Writing library                          : google

Video
ID                                       : 1
Format                                   : VP8
Codec ID                                 : V_VP8
Duration                                 : 1h 22mn
Bit rate                                 : 2 505 Kbps
Width                                    : 1 280 pixels
Height                                   : 720 pixels
Display aspect ratio                     : 16:9
Frame rate mode                          : Constant
Frame rate                               : 30.000 fps
Compression mode                         : Lossy
Bits/(Pixel*Frame)                       : 0.091
Stream size                              : 1.45 GiB (89%)
Language                                 : English
Default                                  : Yes
Forced                                   : No

Audio
ID                                       : 2
Format                                   : Vorbis
Format settings, Floor                   : 1
Codec ID                                 : A_VORBIS
Duration                                 : 1h 22mn
Bit rate mode                            : Variable
Bit rate                                 : 192 Kbps
Channel(s)                               : 2 channels
Sampling rate                            : 44.1 KHz
Compression mode                         : Lossy
Stream size                              : 114 MiB (7%)
Default                                  : Yes
Forced                                   : No

